<svg version="1.1" id="Layer_1" xmlns="http://www.w3.org/2000/svg" xmlns:xlink="http://www.w3.org/1999/xlink" x="0px" y="0px"
	 width="100%" viewBox="0 0 283 112" enable-background="new 0 0 283 112" xml:space="preserve">
<path fill="#F0EEE6" opacity="1.000000" stroke="none" 
	d="
M224.000000,113.000000 
	C149.333359,113.000000 75.166710,113.000000 1.000050,113.000000 
	C1.000033,75.666702 1.000033,38.333401 1.000017,1.000075 
	C95.333275,1.000050 189.666550,1.000050 283.999878,1.000025 
	C283.999908,38.333260 283.999908,75.666519 283.999939,112.999893 
	C264.166656,113.000000 244.333328,113.000000 224.000000,113.000000 
M262.141937,79.599068 
	C279.128479,57.126984 267.361969,25.951662 239.786118,21.636406 
	C231.085678,20.274904 221.992401,21.423857 213.045898,21.423857 
	C213.045898,45.219078 213.045898,68.920128 213.045898,93.001892 
	C219.716843,93.001892 226.168060,92.944351 232.617905,93.014465 
	C244.277710,93.141220 254.000992,88.957169 262.141937,79.599068 
M176.213287,78.650246 
	C178.724655,78.248077 180.160400,79.214661 180.951233,81.733513 
	C182.139969,85.519676 183.665787,89.199997 184.973343,92.723404 
	C190.865417,92.723404 196.424362,92.723404 202.373932,92.723404 
	C201.681915,90.817566 201.171387,89.269150 200.563782,87.759811 
	C193.003891,68.980042 185.427048,50.207092 177.860611,31.429960 
	C173.591461,20.835518 173.595703,20.951916 162.221863,20.880238 
	C159.258057,20.861559 157.951096,21.819147 156.870377,24.541969 
	C148.300171,46.134487 139.551682,67.656227 130.878387,89.207916 
	C130.427002,90.329529 130.161377,91.525887 129.743515,92.904343 
	C135.760178,92.904343 141.235733,92.904343 146.899918,92.904343 
	C148.152252,89.632050 149.681534,86.459251 150.559158,83.115417 
	C151.468735,79.649803 153.119766,78.351334 156.809814,78.556931 
	C162.948029,78.898926 169.119186,78.650101 176.213287,78.650246 
M103.202141,92.397697 
	C103.202141,83.794601 103.202141,75.191505 103.202141,66.037880 
	C108.219955,66.037880 112.529045,66.279800 116.802383,65.991570 
	C128.628708,65.193893 137.006042,56.832317 137.866226,45.251129 
	C138.802582,32.644329 132.536133,23.368464 119.922737,21.865532 
	C109.175125,20.584911 98.153862,21.600912 87.248787,21.600912 
	C87.248787,45.254677 87.248787,68.976814 87.248787,92.949127 
	C92.460587,92.949127 97.423592,92.949127 103.202141,92.397697 
M15.825134,91.638992 
	C36.098923,91.638992 56.372715,91.638992 76.685020,91.638992 
	C76.685020,68.109650 76.685020,45.085621 76.685020,22.277748 
	C54.760506,22.277748 33.193153,22.277748 11.304654,22.277748 
	C11.304654,44.556854 11.349012,66.512291 11.250901,88.467102 
	C11.238021,91.349342 12.570150,91.871941 15.825134,91.638992 
z"/>
<path fill="#020202" opacity="1.000000" stroke="none" 
	d="
M261.924164,79.883141 
	C254.000992,88.957169 244.277710,93.141220 232.617905,93.014465 
	C226.168060,92.944351 219.716843,93.001892 213.045898,93.001892 
	C213.045898,68.920128 213.045898,45.219078 213.045898,21.423857 
	C221.992401,21.423857 231.085678,20.274904 239.786118,21.636406 
	C267.361969,25.951662 279.128479,57.126984 261.924164,79.883141 
M235.960297,35.998234 
	C233.836411,35.878662 231.712524,35.759090 229.397278,35.628746 
	C229.397278,50.016167 229.397278,64.024559 229.397278,78.012993 
	C241.241653,78.702309 249.705246,72.471169 251.807022,61.759525 
	C254.140854,49.865345 248.402649,40.054672 235.960297,35.998234 
z"/>
<path fill="#040404" opacity="1.000000" stroke="none" 
	d="
M175.744873,78.650169 
	C169.119186,78.650101 162.948029,78.898926 156.809814,78.556931 
	C153.119766,78.351334 151.468735,79.649803 150.559158,83.115417 
	C149.681534,86.459251 148.152252,89.632050 146.899918,92.904343 
	C141.235733,92.904343 135.760178,92.904343 129.743515,92.904343 
	C130.161377,91.525887 130.427002,90.329529 130.878387,89.207916 
	C139.551682,67.656227 148.300171,46.134487 156.870377,24.541969 
	C157.951096,21.819147 159.258057,20.861559 162.221863,20.880238 
	C173.595703,20.951916 173.591461,20.835518 177.860611,31.429960 
	C185.427048,50.207092 193.003891,68.980042 200.563782,87.759811 
	C201.171387,89.269150 201.681915,90.817566 202.373932,92.723404 
	C196.424362,92.723404 190.865417,92.723404 184.973343,92.723404 
	C183.665787,89.199997 182.139969,85.519676 180.951233,81.733513 
	C180.160400,79.214661 178.724655,78.248077 175.744873,78.650169 
M161.371658,54.853645 
	C160.304199,57.824295 159.236740,60.794949 158.088058,63.991615 
	C163.658020,63.991615 168.596970,63.991615 174.027847,63.991615 
	C171.432648,57.217754 168.947006,50.729885 165.996750,43.029274 
	C164.262787,47.553566 162.995590,50.859974 161.371658,54.853645 
z"/>
<path fill="#020202" opacity="1.000000" stroke="none" 
	d="
M102.794373,92.673416 
	C97.423592,92.949127 92.460587,92.949127 87.248787,92.949127 
	C87.248787,68.976814 87.248787,45.254677 87.248787,21.600912 
	C98.153862,21.600912 109.175125,20.584911 119.922737,21.865532 
	C132.536133,23.368464 138.802582,32.644329 137.866226,45.251129 
	C137.006042,56.832317 128.628708,65.193893 116.802383,65.991570 
	C112.529045,66.279800 108.219955,66.037880 103.202141,66.037880 
	C103.202141,75.191505 103.202141,83.794601 102.794373,92.673416 
M103.301575,43.507065 
	C103.301575,46.613415 103.301575,49.719765 103.301575,53.148762 
	C109.600922,52.979645 116.111420,54.297318 119.346687,48.094402 
	C120.671616,45.554169 120.419250,40.794991 118.831093,38.416023 
	C115.288452,33.109375 109.257469,33.797333 103.301590,34.304035 
	C103.301590,37.283398 103.301590,39.913692 103.301575,43.507065 
z"/>
<path fill="#080708" opacity="1.000000" stroke="none" 
	d="
M15.366024,91.638855 
	C12.570150,91.871941 11.238021,91.349342 11.250901,88.467102 
	C11.349012,66.512291 11.304654,44.556854 11.304654,22.277748 
	C33.193153,22.277748 54.760506,22.277748 76.685020,22.277748 
	C76.685020,45.085621 76.685020,68.109650 76.685020,91.638992 
	C56.372715,91.638992 36.098923,91.638992 15.366024,91.638855 
M70.788002,62.952686 
	C70.855370,62.536869 70.922729,62.121056 71.255653,60.955063 
	C73.048302,55.063885 72.101685,49.374790 70.020844,43.070564 
	C60.900299,25.452641 48.045380,24.454273 34.071945,28.268770 
	C22.195169,31.510914 15.501918,43.345078 16.068655,55.762199 
	C16.618271,67.804184 25.149803,78.409882 38.166855,81.500801 
	C48.840824,84.035355 59.892166,80.131317 67.530769,69.697960 
	C68.452881,68.438477 68.575539,66.593681 69.014305,64.998985 
	C69.014305,64.998985 69.029762,65.055061 69.807777,65.145882 
	C69.954895,64.453255 70.102005,63.760632 70.141418,63.084953 
	C70.141418,63.084953 70.193016,63.181004 70.788002,62.952686 
z"/>
<path fill="#EDEBE3" opacity="1.000000" stroke="none" 
	d="
M236.384354,36.057171 
	C248.402649,40.054672 254.140854,49.865345 251.807022,61.759525 
	C249.705246,72.471169 241.241653,78.702309 229.397278,78.012993 
	C229.397278,64.024559 229.397278,50.016167 229.397278,35.628746 
	C231.712524,35.759090 233.836411,35.878662 236.384354,36.057171 
z"/>
<path fill="#E9E7DF" opacity="1.000000" stroke="none" 
	d="
M161.550018,54.510014 
	C162.995590,50.859974 164.262787,47.553566 165.996750,43.029274 
	C168.947006,50.729885 171.432648,57.217754 174.027847,63.991615 
	C168.596970,63.991615 163.658020,63.991615 158.088058,63.991615 
	C159.236740,60.794949 160.304199,57.824295 161.550018,54.510014 
z"/>
<path fill="#E6E4DD" opacity="1.000000" stroke="none" 
	d="
M103.301582,43.025524 
	C103.301590,39.913692 103.301590,37.283398 103.301590,34.304035 
	C109.257469,33.797333 115.288452,33.109375 118.831093,38.416023 
	C120.419250,40.794991 120.671616,45.554169 119.346687,48.094402 
	C116.111420,54.297318 109.600922,52.979645 103.301575,53.148762 
	C103.301575,49.719765 103.301575,46.613415 103.301582,43.025524 
z"/>
<path fill="#3908FA" opacity="1.000000" stroke="none" 
	d="
M69.068726,65.020172 
	C68.575539,66.593681 68.452881,68.438477 67.530769,69.697960 
	C59.892166,80.131317 48.840824,84.035355 38.166855,81.500801 
	C25.149803,78.409882 16.618271,67.804184 16.068655,55.762199 
	C15.501918,43.345078 22.195169,31.510914 34.071945,28.268770 
	C48.045380,24.454273 60.900299,25.452641 69.664871,43.420647 
	C68.275970,42.981388 67.217758,42.222778 66.214279,41.397617 
	C60.595524,36.777313 53.415600,36.013500 47.132580,39.389053 
	C41.375961,42.481804 37.652340,49.273415 38.298229,55.502270 
	C39.035675,62.614056 43.624546,68.000504 50.529949,70.279602 
	C57.967014,72.734184 63.535732,69.043396 69.068726,65.020172 
z"/>
<path fill="#FAF5FA" opacity="1.000000" stroke="none" 
	d="
M69.041519,65.009583 
	C63.535732,69.043396 57.967014,72.734184 50.529949,70.279602 
	C43.624546,68.000504 39.035675,62.614056 38.298229,55.502270 
	C37.652340,49.273415 41.375961,42.481804 47.132580,39.389053 
	C53.415600,36.013500 60.595524,36.777313 66.214279,41.397617 
	C67.217758,42.222778 68.275970,42.981388 69.648438,43.771263 
	C72.101685,49.374790 73.048302,55.063885 70.817856,61.456436 
	C70.317711,62.365540 70.255363,62.773273 70.193016,63.181004 
	C70.193016,63.181004 70.141418,63.084953 69.862503,63.159691 
	C69.398972,63.841305 69.214363,64.448181 69.029762,65.055061 
	C69.029762,65.055061 69.014305,64.998985 69.041519,65.009583 
z"/>
<path fill="#3908FA" opacity="1.000000" stroke="none" 
	d="
M69.418770,65.100471 
	C69.214363,64.448181 69.398972,63.841305 69.916351,63.151218 
	C70.102005,63.760632 69.954895,64.453255 69.418770,65.100471 
z"/>
<path fill="#3908FA" opacity="1.000000" stroke="none" 
	d="
M70.490509,63.066845 
	C70.255363,62.773273 70.317711,62.365540 70.685074,61.831524 
	C70.922729,62.121056 70.855370,62.536869 70.490509,63.066845 
z"/>
</svg>